Wuthering Heights (1970)

Plot: The Earnshaws are Yorkshire farmers during the early 19th Century. One day, Mr. Earnshaw returns from a trip to the city, bringing with him a ragged little boy called Heathcliff. Earnshaw's son, Hindley, resents the child, but Heathcliff becomes companion and soulmate to Hindley's sister, Catherine. After her parents die, Cathy and Heathcliff grow up wild and free on the Moors and despite the continued enmity between Hindley and Heathcliff they're happy-- until Cathy meets Edgar Linton, the son of a wealthy neighbor.

Cast:
Anna Calder-Marshall ... Cathy Earnshaw 
Timothy Dalton ... Heathcliff 
Harry Andrews ... Mr. Earnshaw 
Pamela Brown ... Mrs. Linton 
Judy Cornwell ... Nellie 
James Cossins ... Mr. Linton 
Rosalie Crutchley ... Mrs. Earnshaw 
Hilary Heath ... Isabella Linton
Julian Glover ... Hindley Earnshaw 
Hugh Griffith ... Dr. Kenneth 
Morag Hood ... Frances Earnshaw 
Ian Ogilvy ... Edgar Linton 
Peter Sallis ... Mr. Shielders 
Aubrey Woods ... Joseph

Details
Genre: Drama / Romance
Runtime: 104 min
Country: UK
Language: English

Directed by: Robert Fuest
Written by: Patrick Tilley, based on the novel by Emily Brontë

IMDb: http://www.imdb.com/title/tt0066585/

--------------------------------------------------------------------------------

MediaInfo:

General
Format                                   : AVI
Format/Info                              : Audio Video Interleave
File size                                : 700 MiB
Duration                                 : 1h 43mn
Overall bit rate mode                    : Variable
Overall bit rate                         : 942 Kbps
Writing application                      : VirtualDubMod 1.5.4.1 (build 2178/release)
Writing library                          : VirtualDubMod build 2178/release

Video
ID                                       : 0
Format                                   : MPEG-4 Visual
Format profile                           : Simple@L3
Format settings, BVOP                    : 1
Format settings, QPel                    : No
Format settings, GMC                     : No warppoints
Format settings, Matrix                  : Custom
Codec ID                                 : XVID
Codec ID/Hint                            : XviD
Duration                                 : 1h 43mn
Bit rate                                 : 659 Kbps
Width                                    : 448 pixels
Height                                   : 352 pixels
Display aspect ratio                     : 1.273
Frame rate                               : 23.976 fps
Color space                              : YUV
Chroma subsampling                       : 4:2:0
Bit depth                                : 8 bits
Scan type                                : Progressive
Compression mode                         : Lossy
Bits/(Pixel*Frame)                       : 0.174
Stream size                              : 490 MiB (70%)
Writing library                          : XviD 0.0.09 (UTC 2003-03-25)

Audio
ID                                       : 1
Format                                   : MPEG Audio
Format version                           : Version 1
Format profile                           : Layer 3
Mode                                     : Joint stereo
Mode extension                           : MS Stereo
Codec ID                                 : 55
Codec ID/Hint                            : MP3
Duration                                 : 1h 43mn
Bit rate mode                            : Variable
Bit rate                                 : 270 Kbps
Channel(s)                               : 2 channels
Sampling rate                            : 48.0 KHz
Compression mode                         : Lossy
Stream size                              : 201 MiB (29%)
Alignment                                : Aligned on interleaves
Interleave, duration                     : 24 ms (0.58 video frame)
Interleave, preload duration             : 330 ms

--------------------------------------------------------------------------------

Screenshots: 
http://i.imgur.com/5ioJJ.jpg
 
http://i.imgur.com/tF91b.jpg
 
http://i.imgur.com/Ik9MH.jpg
 
http://i.imgur.com/vuase.jpg
 
http://i.imgur.com/JwTqP.jpg
 
http://i.imgur.com/LzzUt.jpg
 
http://i.imgur.com/c4ByV.jpg
 
http://i.imgur.com/tZEfl.jpg
 
http://i.imgur.com/YZSo9.jpg
 
http://i.imgur.com/TGThn.jpg